<svg width="27" height="28" viewBox="0 0 27 28" fill="none" xmlns="http://www.w3.org/2000/svg">
<path fill-rule="evenodd" clip-rule="evenodd" d="M16.3973 21.3994C15.8053 22.0936 15.0686 22.5252 14.1621 22.6398C12.992 22.7877 11.9952 22.4243 11.1818 21.5789C11.0422 21.4337 10.9421 21.416 10.7597 21.4721C8.86227 22.0541 6.84826 20.8903 6.40308 18.9568C6.36102 18.7744 6.29118 18.6894 6.09704 18.6426C4.1152 18.1647 2.98927 16.1864 3.58574 14.2373C3.63306 14.0827 3.61156 14.0004 3.49212 13.8892C1.99023 12.4914 1.98881 10.2084 3.48679 8.79677C3.59916 8.69084 3.63785 8.61307 3.58841 8.45063C2.98636 6.46981 4.1367 4.48915 6.14412 4.01572C6.23735 3.99367 6.35835 3.87557 6.37727 3.78376C6.76163 1.92104 8.76685 0.569496 10.844 1.22412C10.9253 1.24978 11.0704 1.2005 11.1341 1.13552C12.6118 -0.374928 14.8077 -0.382539 16.2522 1.13592C16.3843 1.27481 16.4838 1.25543 16.6352 1.20999C18.563 0.630941 20.5468 1.78112 21.0063 3.74491C21.047 3.91889 21.117 3.99571 21.3031 4.03589C23.2265 4.45227 24.4149 6.49288 23.8353 8.38142C23.7757 8.57564 23.7977 8.68668 23.9506 8.82981C25.4115 10.198 25.3977 12.5199 23.9228 13.8816C23.7945 14.0001 23.7719 14.0881 23.8231 14.2542C24.4161 16.1794 23.2839 18.1609 21.3199 18.642C21.1581 18.6816 21.0538 18.7243 21.0083 18.9159C20.5253 20.9492 18.545 22.0655 16.5433 21.4435C16.4973 21.4295 16.4512 21.4157 16.3973 21.3994ZM13.7064 17.8971C17.3506 17.8935 20.3026 14.9371 20.3061 11.2878C20.3097 7.62839 17.3437 4.66689 13.6838 4.67537C10.0396 4.68376 7.08933 7.64997 7.09906 11.2958C7.10879 14.9467 10.0656 17.9008 13.7064 17.8971Z" fill="#0088DF"/>
<path fill-rule="evenodd" clip-rule="evenodd" d="M3.31776 18.6049C3.83082 19.1326 4.41254 19.5378 5.08466 19.8127C5.1545 19.8413 5.21744 19.9262 5.25024 19.9999C6.10324 21.9137 7.60263 22.8871 9.701 23.0548C9.65321 23.1437 9.6117 23.226 9.56563 23.3057C8.90505 24.4506 8.23983 25.5929 7.58426 26.7406C7.19292 27.4258 6.61724 27.8015 5.82552 27.7303C5.05052 27.6604 4.53755 27.2127 4.27709 26.477C4.18567 26.2189 4.0795 25.9659 3.98619 25.7084C3.90733 25.4907 3.76396 25.4006 3.53223 25.4402C3.2137 25.4946 2.8944 25.5446 2.57438 25.5887C1.87331 25.6852 1.29331 25.4554 0.873166 24.8901C0.451295 24.3226 0.372115 23.6769 0.712766 23.062C1.53344 21.5807 2.39743 20.1234 3.24502 18.6569C3.25373 18.6419 3.27539 18.6345 3.31776 18.6049Z" fill="#0088DF"/>
<path fill-rule="evenodd" clip-rule="evenodd" d="M17.6824 23.0447C19.2809 22.9598 20.5608 22.3494 21.506 21.1137C21.7531 20.7907 21.9187 20.4059 22.1297 20.0543C22.1864 19.9598 22.2557 19.8432 22.3478 19.8042C23.0075 19.5256 23.5813 19.1264 24.1038 18.5896C24.1589 18.6712 24.2091 18.7364 24.2498 18.807C25.0339 20.1631 25.8159 21.5207 26.6008 22.8764C26.985 23.5401 27.0033 24.2096 26.5662 24.8417C26.1305 25.4715 25.5029 25.7046 24.744 25.5754C24.4643 25.5278 24.1819 25.4939 23.9027 25.443C23.6473 25.3963 23.4938 25.4877 23.4088 25.7351C23.3007 26.0496 23.1869 26.3635 23.0513 26.6666C22.773 27.2887 22.2839 27.6569 21.6094 27.7301C20.9454 27.8019 20.3537 27.5717 20.0049 27.0067C19.2091 25.7177 18.4688 24.3943 17.6824 23.0447Z" fill="#0088DF"/>
<path fill-rule="evenodd" clip-rule="evenodd" d="M8.51148 11.2731C8.51643 8.39803 10.8445 6.08103 13.7215 6.08778C16.5792 6.09453 18.8926 8.41757 18.8938 11.2816C18.895 14.1563 16.5666 16.4882 13.6982 16.4849C10.8282 16.4817 8.50654 14.1488 8.51148 11.2731Z" fill="#0088DF"/>
</svg>
