<svg width="24" height="27" viewBox="0 0 24 27" fill="none" xmlns="http://www.w3.org/2000/svg">
<path fill-rule="evenodd" clip-rule="evenodd" d="M22.4229 0.399308C22.9086 0.558587 23.2868 0.832249 23.4213 1.35574C23.449 1.46333 23.4651 1.57723 23.4653 1.68815C23.4667 3.54102 23.5087 5.3952 23.4518 7.24647C23.3918 9.1975 22.608 10.8294 21.0367 12.0378C20.6073 12.3681 20.123 12.6001 19.5903 12.7125C19.4302 12.7463 19.3462 12.8238 19.273 12.9695C17.9989 15.5063 15.9641 17.0372 13.1575 17.4733C9.73185 18.0057 6.31919 16.1552 4.80379 12.9907C4.72502 12.8262 4.62636 12.7505 4.44852 12.7063C3.31791 12.4256 2.4769 11.727 1.81055 10.8046C1.0231 9.71448 0.614202 8.4873 0.602077 7.14275C0.586558 5.41986 0.596951 3.69683 0.596466 1.9738C0.596258 1.0543 0.803617 0.742183 1.64109 0.39917C8.56834 0.399308 15.4957 0.399308 22.4229 0.399308ZM12.019 3.18727C11.7128 3.1917 11.4864 3.33913 11.3289 3.65332C11.0423 4.22517 10.7668 4.8027 10.4725 5.37053C10.4254 5.4615 10.3126 5.56106 10.2168 5.57727C9.6032 5.68133 8.98687 5.77209 8.36923 5.84899C8.02143 5.89229 7.75013 6.02995 7.63124 6.36964C7.51235 6.70912 7.62985 6.99193 7.88453 7.23497C8.33542 7.66521 8.78443 8.09773 9.22056 8.54265C9.29455 8.6181 9.34499 8.76727 9.32981 8.87126C9.23885 9.49562 9.12599 10.1169 9.0195 10.7389C8.96283 11.0705 9.02283 11.3629 9.31187 11.5688C9.6086 11.7802 9.90783 11.7395 10.2143 11.5739C10.7466 11.2861 11.2878 11.0148 11.8187 10.7245C11.9715 10.6411 12.0901 10.636 12.2463 10.722C12.7915 11.022 13.3401 11.3172 13.9005 11.5874C14.0683 11.6683 14.2875 11.7142 14.4677 11.6842C14.9307 11.607 15.129 11.2178 15.034 10.6624C14.932 10.0658 14.8218 9.47047 14.7347 8.87174C14.7196 8.76789 14.7701 8.61893 14.8441 8.54356C15.2865 8.09253 15.7429 7.6553 16.198 7.21702C16.4453 6.97883 16.5458 6.697 16.433 6.36964C16.3234 6.05199 16.0739 5.89964 15.7464 5.85481C15.1211 5.76939 14.4952 5.685 13.873 5.58025C13.7688 5.56272 13.6427 5.46496 13.5928 5.3697C13.2966 4.80305 13.0192 4.22656 12.7367 3.6527C12.5896 3.35416 12.3584 3.1881 12.019 3.18727ZM4.08361 10.9137C3.93687 7.92141 4.06948 4.92956 4.0047 1.9278C3.36828 1.9278 2.7505 1.9278 2.12572 1.9278C2.11886 1.9747 2.10992 2.00768 2.10992 2.04059C2.11033 3.77207 2.08823 5.50404 2.12135 7.2349C2.14117 8.27163 2.49644 9.21704 3.13542 10.0437C3.40597 10.3935 3.71725 10.7011 4.08361 10.9137ZM20.0487 1.92669C20.0487 2.0417 20.0487 2.14299 20.0487 2.24421C20.0487 3.51663 20.0615 4.78905 20.0455 6.06127C20.0251 7.67733 20.1322 9.29616 19.9475 10.9583C20.145 10.8007 20.3303 10.6756 20.4888 10.5226C21.4689 9.5764 21.9298 8.39862 21.949 7.0556C21.9725 5.42007 21.9553 3.78392 21.9546 2.14804C21.9545 2.07405 21.9438 1.99999 21.9381 1.92669C21.3037 1.92669 20.6927 1.92669 20.0487 1.92669Z" fill="#0088DF"/>
<path fill-rule="evenodd" clip-rule="evenodd" d="M7.9795 27.0001C7.94596 26.8794 7.88458 26.759 7.8834 26.6378C7.87502 25.7729 7.87786 24.9078 7.87952 24.0428C7.88008 23.7579 7.94583 23.6891 8.23002 23.689C10.7645 23.6875 13.2989 23.6875 15.8334 23.689C16.1174 23.6891 16.1838 23.7584 16.1842 24.0428C16.186 24.9078 16.1888 25.7728 16.1804 26.6377C16.1792 26.7588 16.1179 26.8792 16.0843 27C13.3828 27.0001 10.6812 27.0001 7.9795 27.0001Z" fill="#0088DF"/>
<path fill-rule="evenodd" clip-rule="evenodd" d="M14.324 22.3031C12.7908 22.3031 11.2735 22.3031 9.73926 22.3031C9.73926 21.0829 9.73926 19.8773 9.73926 18.6453C11.2709 19.0841 12.7885 19.0797 14.324 18.6479C14.324 19.8785 14.324 21.0834 14.324 22.3031Z" fill="#0088DF"/>
<path fill-rule="evenodd" clip-rule="evenodd" d="M13.2993 9.56175C12.9829 9.39818 12.707 9.25913 12.4345 9.11378C12.1602 8.96759 11.8919 8.97113 11.6193 9.11897C11.3549 9.26246 11.0865 9.39894 10.7661 9.56674C10.8197 9.23745 10.8549 8.95242 10.9147 8.67273C10.9882 8.3282 10.9049 8.04754 10.6475 7.80443C10.4351 7.60393 10.2406 7.38444 10.0164 7.15055C10.3281 7.10136 10.6285 7.0451 10.9312 7.00866C11.2539 6.96986 11.4704 6.80296 11.6081 6.51517C11.7373 6.24504 11.873 5.9781 12.0311 5.65906C12.1863 5.97041 12.3239 6.23388 12.4502 6.5027C12.5906 6.80123 12.8115 6.97277 13.1451 7.01032C13.4441 7.04399 13.7407 7.09942 14.0515 7.14722C13.8277 7.38084 13.628 7.60566 13.4105 7.81163C13.1608 8.04823 13.0776 8.32175 13.146 8.65631C13.2041 8.94161 13.2439 9.23059 13.2993 9.56175Z" fill="#0088DF"/>
</svg>
