<svg width="30" height="30" viewBox="0 0 30 30" fill="none" xmlns="http://www.w3.org/2000/svg">
<path d="M9.2928 23.5525C9.39624 23.6558 9.39898 23.8219 9.29703 23.9267L8.92374 24.3104C8.81933 24.4178 8.64528 24.4199 8.53926 24.3141C8.15971 23.9352 7.79907 23.5432 7.45358 23.1447C6.70348 23.6122 5.94855 23.839 5.12805 23.839C4.98941 23.839 4.84868 23.8327 4.70586 23.8199C3.57636 23.7188 2.65091 23.2515 1.79291 22.3488C1.68674 22.2373 1.63386 22.0853 1.64747 21.9319C1.66107 21.7783 1.74009 21.6383 1.86459 21.5472C2.86906 20.8113 3.86671 20.5153 4.99203 20.6168C5.21859 20.6371 5.43496 20.6763 5.64619 20.7267C5.31202 20.1987 5.01796 19.6703 4.76452 19.1467C4.5603 19.1729 4.35855 19.1903 4.1612 19.1903C3.46016 19.1903 2.79995 19.0254 2.16325 18.6933C1.15515 18.1609 0.479719 17.3729 0.0355586 16.212C-0.0198877 16.068 -0.00997703 15.9073 0.0617014 15.771C0.13338 15.6346 0.259969 15.5357 0.409594 15.4994C1.61966 15.207 2.64973 15.3151 3.65527 15.8401C3.65934 15.8422 3.66288 15.8447 3.66689 15.8469C3.57582 15.3476 3.52257 14.8492 3.50114 14.3527C2.46577 14.1234 1.66997 13.6484 1.02224 12.8729C0.294523 12.0019 -0.0293163 11.0165 0.00207653 9.77209C0.00625509 9.61794 0.0763799 9.47322 0.194076 9.37428C0.312308 9.27561 0.467183 9.23294 0.619379 9.25599C1.84932 9.446 2.76068 9.94012 3.48839 10.8106C3.59575 10.939 3.69154 11.0709 3.78148 11.2049C3.91075 10.6169 4.08288 10.0447 4.29561 9.49043C3.42502 8.88037 2.87136 8.13492 2.57023 7.16811C2.23332 6.08516 2.31234 5.05113 2.81875 3.91318C2.881 3.77238 3.00132 3.66534 3.14832 3.61952C3.29639 3.57423 3.45539 3.59336 3.58675 3.67344C4.64982 4.32171 5.30168 5.12831 5.63912 6.21175C5.69907 6.40417 5.74107 6.59482 5.77471 6.78499C6.06727 6.38659 6.38618 6.00663 6.73107 5.64565C6.25943 4.82891 6.06909 3.97932 6.15185 3.06049C6.2591 1.92361 6.72678 0.998443 7.624 0.147138C7.73542 0.0411206 7.88869 -0.0111916 8.04148 0.0021544C8.19475 0.0163044 8.33446 0.0955766 8.42548 0.219925C9.16101 1.22779 9.45715 2.22178 9.35671 3.34815C9.29756 4.0333 9.10037 4.63837 8.75349 5.19767C8.72735 5.2398 8.69542 5.27828 8.65878 5.31151C8.31999 5.58283 8.04132 5.83019 7.79644 6.0739L7.77673 6.09298C5.66794 8.13835 4.55361 10.8374 4.55361 13.8978C4.55361 14.9517 4.73162 16.0259 5.08214 17.0911C5.08402 17.0963 5.08868 17.1005 5.09034 17.1056C5.21703 17.5007 5.3755 17.9142 5.56091 18.3341L5.56225 18.3341C6.34139 20.0784 7.66128 21.9232 9.2928 23.5525ZM29.9383 15.7709C29.8666 15.6345 29.74 15.5356 29.5904 15.4992C28.3803 15.2069 27.3503 15.315 26.3447 15.84C26.3407 15.8421 26.3371 15.8446 26.3331 15.8468C26.4242 15.3475 26.4774 14.849 26.4988 14.3526C27.5342 14.1233 28.33 13.6483 28.9778 12.8728C29.7055 12.0018 30.0293 11.0164 29.9979 9.77198C29.9937 9.61783 29.9236 9.47312 29.8059 9.37417C29.6877 9.2755 29.5328 9.23283 29.3806 9.25588C28.1507 9.44589 27.2393 9.94001 26.5116 10.8105C26.4042 10.9389 26.3085 11.0708 26.2185 11.2048C26.0892 10.6167 25.9171 10.0446 25.7044 9.49032C26.575 8.88026 27.1286 8.13482 27.4298 7.16801C27.7667 6.08505 27.6876 5.05103 27.1812 3.91308C27.119 3.77227 26.9987 3.66524 26.8517 3.61941C26.7036 3.57412 26.5446 3.59325 26.4132 3.67333C25.3502 4.3216 24.6983 5.12821 24.3609 6.21165C24.3009 6.40407 24.2589 6.59472 24.2253 6.78488C23.9327 6.38649 23.6138 6.00653 23.2689 5.64554C23.7406 4.82881 23.9309 3.97922 23.8481 3.06038C23.7409 1.9235 23.2732 0.998336 22.376 0.147031C22.2646 0.0410133 22.1113 -0.0112987 21.9585 0.00204732C21.8052 0.0161973 21.6655 0.0954693 21.5745 0.219818C20.839 1.22768 20.5428 2.22167 20.6433 3.34804C20.7024 4.03319 20.8996 4.63826 21.2465 5.19756C21.2726 5.23969 21.3046 5.27818 21.3412 5.31141C21.68 5.58272 21.9587 5.83008 22.2036 6.07379L22.2233 6.09287C24.3321 8.13841 25.4464 10.8375 25.4464 13.8979C25.4464 14.9517 25.2684 16.026 24.9179 17.0912C24.916 17.0963 24.9114 17.1005 24.9097 17.1057C24.783 17.5008 24.6245 17.9142 24.4391 18.3341L24.4378 18.3342C23.6587 20.0784 22.3388 21.9233 20.7072 23.5526C20.6038 23.6559 20.6011 23.822 20.703 23.9268L21.0763 24.3105C21.1807 24.4179 21.3548 24.42 21.4608 24.3142C21.8403 23.9353 22.201 23.5433 22.5465 23.1448C23.2966 23.6123 24.0515 23.8391 24.872 23.8391C25.0106 23.8391 25.1514 23.8328 25.2942 23.82C26.4237 23.719 27.3491 23.2516 28.2071 22.3489C28.3133 22.2374 28.3662 22.0854 28.3526 21.932C28.339 21.7784 28.26 21.6384 28.1355 21.5473C27.131 20.8114 26.1333 20.5154 25.008 20.6169C24.7815 20.6372 24.5651 20.6764 24.3538 20.7268C24.688 20.1988 24.9821 19.6704 25.2355 19.1468C25.4397 19.173 25.6415 19.1904 25.8388 19.1904C26.5399 19.1904 27.2001 19.0255 27.8368 18.6934C28.8449 18.1611 29.5203 17.3731 29.9645 16.2121C30.0199 16.0679 30.01 15.9072 29.9383 15.7709ZM19.0869 19.8528C19.846 19.1106 20.4879 18.2846 20.9918 17.4021C21.9784 15.7049 22.5 13.7583 22.5 11.7727C22.5 10.2048 22.1856 8.68999 21.5657 7.27022C21.4804 7.07496 21.2879 6.94884 21.075 6.94884H8.92514C8.71219 6.94884 8.51971 7.07501 8.43442 7.27022C7.81444 8.69004 7.50003 10.2048 7.50003 11.7727C7.50003 13.7583 8.0216 15.7049 9.00619 17.3985C9.51206 18.2846 10.154 19.1106 10.9209 19.8604C11.5105 20.4304 12.1608 20.9342 12.8572 21.3616C12.8572 21.3812 12.8572 21.4008 12.8572 21.4205C12.8572 22.9185 12.524 24.376 11.8987 25.7122H18.1013C17.4761 24.376 17.1429 22.9185 17.1429 21.4204C17.1429 21.4008 17.1429 21.3812 17.1429 21.3615C17.8392 20.9342 18.4905 20.4293 19.0869 19.8528ZM18.75 26.7841H11.25C10.3638 26.7841 9.64289 27.5054 9.64289 28.392V29.464C9.64289 29.76 9.88251 30 10.1786 30H19.8214C20.1175 30 20.3572 29.76 20.3572 29.464V28.392C20.3572 27.5054 19.6362 26.7841 18.75 26.7841Z" fill="#0088DF"/>
</svg>
