<svg width="31" height="33" viewBox="0 0 31 33" fill="none" xmlns="http://www.w3.org/2000/svg">
<path fill-rule="evenodd" clip-rule="evenodd" d="M0.00255325 16.3205C0.00255325 14.6486 -0.00236015 12.9768 0.00391235 11.3051C0.0111257 9.38967 0.821532 7.90592 2.45186 6.89918C5.76028 4.85613 9.07122 2.81683 12.396 0.800436C14.1462 -0.261079 15.9467 -0.269127 17.6982 0.790297C21.025 2.80272 24.3347 4.84379 27.6435 6.88632C29.2867 7.90069 30.1036 9.3949 30.1058 11.3258C30.1095 14.6564 30.1112 17.987 30.1051 21.3174C30.1016 23.2159 29.3049 24.7041 27.6916 25.7045C24.3649 27.7675 21.0305 29.8188 17.6794 31.8423C15.9262 32.9007 14.1242 32.8745 12.3762 31.8134C9.06338 29.8024 5.76394 27.7693 2.46587 25.7345C0.836063 24.729 0.0146798 23.2519 0.00453925 21.3359C-0.00434678 19.6641 0.00255325 17.9923 0.00255325 16.3205ZM9.93797 22.1083C9.91643 23.2125 10.8763 23.8183 11.7739 23.3715C12.7777 22.8717 13.7675 22.343 14.7535 21.8086C14.9775 21.6872 15.1459 21.6938 15.364 21.8116C16.3164 22.3258 17.28 22.8194 18.2351 23.3288C18.6268 23.5377 19.0226 23.6002 19.4371 23.4205C20.0293 23.1639 20.267 22.5946 20.1274 21.802C19.9529 20.8128 19.7919 19.8212 19.6051 18.8344C19.5463 18.5236 19.6049 18.3109 19.8468 18.0855C20.6393 17.3465 21.4096 16.5833 22.1762 15.8172C22.546 15.4476 22.6805 14.9965 22.4983 14.4877C22.3176 13.983 21.9381 13.7211 21.4166 13.6462C20.319 13.4884 19.2201 13.3394 18.1261 13.1599C17.9679 13.1339 17.773 12.9915 17.699 12.8491C17.2122 11.9119 16.748 10.9627 16.2882 10.0119C16.0334 9.4847 15.6525 9.15623 15.0455 9.1579C14.4381 9.15958 14.0612 9.49129 13.8079 10.0193C13.3508 10.9716 12.8857 11.9202 12.4032 12.8596C12.3336 12.9947 12.1603 13.1393 12.0158 13.1631C10.9346 13.3408 9.84953 13.4966 8.76355 13.6439C8.21241 13.7186 7.79832 13.9614 7.60858 14.5013C7.41758 15.0444 7.58997 15.4955 7.99099 15.8832C8.714 16.5822 9.41589 17.3039 10.1602 17.9791C10.4912 18.2794 10.568 18.5649 10.4799 18.9972C10.2611 20.07 10.1004 21.1548 9.93797 22.1083Z" fill="#0088DF"/>
<path fill-rule="evenodd" clip-rule="evenodd" d="M18.5843 15.7771C18.1621 16.2066 17.7852 16.6011 17.3958 16.9828C17.0204 17.3507 16.8773 17.7727 16.9852 18.2966C17.0945 18.8273 17.1659 19.3659 17.2659 19.9743C16.7387 19.6991 16.2721 19.4713 15.821 19.2163C15.3078 18.9262 14.817 18.9215 14.3028 19.2191C13.8531 19.4793 13.3831 19.7043 12.8536 19.9805C12.953 19.3838 13.0278 18.85 13.134 18.3225C13.242 17.7865 13.0979 17.3525 12.7085 16.9742C12.3182 16.5949 11.9484 16.1945 11.5444 15.7774C12.109 15.6926 12.6563 15.6052 13.2054 15.5294C13.6965 15.4617 14.0517 15.2145 14.2712 14.7694C14.5177 14.2696 14.7669 13.771 15.0524 13.1963C15.3036 13.6963 15.5429 14.1226 15.736 14.569C15.9939 15.1652 16.4071 15.499 17.0691 15.5524C17.5616 15.5923 18.0491 15.6953 18.5843 15.7771Z" fill="#0088DF"/>
</svg>
