<svg width="20" height="20" viewBox="0 0 20 20" fill="none" xmlns="http://www.w3.org/2000/svg">
<path d="M18.3327 17.7084C18.3327 18.05 18.0493 18.3334 17.7077 18.3334H2.29102C1.94935 18.3334 1.66602 18.05 1.66602 17.7084C1.66602 17.3667 1.94935 17.0834 2.29102 17.0834H17.7077C18.0493 17.0834 18.3327 17.3667 18.3327 17.7084Z" fill="#0088DF"/>
<path d="M12.8255 3.76672L3.87552 12.7167C3.53385 13.0584 2.98385 13.0584 2.65052 12.7167H2.64219C1.48385 11.55 1.48385 9.66672 2.64219 8.50838L8.60052 2.55005C9.76719 1.38338 11.6505 1.38338 12.8172 2.55005C13.1589 2.87505 13.1589 3.43338 12.8255 3.76672Z" fill="#0088DF"/>
<path d="M17.3499 7.07502L14.8082 4.53335C14.4665 4.19168 13.9165 4.19168 13.5832 4.53335L4.6332 13.4834C4.29154 13.8167 4.29154 14.3667 4.6332 14.7084L7.17487 17.2583C8.34154 18.4167 10.2249 18.4167 11.3915 17.2583L17.3415 11.3C18.5249 10.1334 18.5249 8.24168 17.3499 7.07502ZM10.6332 14.6L9.62487 15.6167C9.41654 15.825 9.07487 15.825 8.8582 15.6167C8.64987 15.4083 8.64987 15.0667 8.8582 14.85L9.87487 13.8334C10.0749 13.6334 10.4249 13.6334 10.6332 13.8334C10.8415 14.0417 10.8415 14.4 10.6332 14.6ZM13.9415 11.2917L11.9082 13.3334C11.6999 13.5333 11.3582 13.5333 11.1415 13.3334C10.9332 13.125 10.9332 12.7833 11.1415 12.5667L13.1832 10.525C13.3832 10.325 13.7332 10.325 13.9415 10.525C14.1499 10.7417 14.1499 11.0834 13.9415 11.2917Z" fill="#0088DF"/>
</svg>
