<svg width="16" height="15" viewBox="0 0 16 15" fill="none" xmlns="http://www.w3.org/2000/svg">
<path fill-rule="evenodd" clip-rule="evenodd" d="M15.17 3.33431C14.991 3.95557 14.5096 4.28121 13.9719 4.54339C13.3267 4.8579 12.6356 5.01863 11.9273 5.10325C10.7902 5.2392 9.66164 5.1913 8.54927 4.90268C8.01192 4.7632 7.49266 4.57316 7.04204 4.24051C6.86963 4.11328 6.71665 3.95406 6.57567 3.79136C6.42305 3.61522 6.35741 3.39651 6.3554 3.16149C6.35535 3.15655 6.35565 3.15156 6.35505 3.14668C6.25521 2.38453 6.63274 1.88949 7.25647 1.52979C7.88977 1.16466 8.57954 0.966002 9.295 0.857304C10.5831 0.661616 11.8658 0.69073 13.1215 1.06075C13.5335 1.18219 13.9333 1.36549 14.3142 1.56682C14.7293 1.78623 15.0477 2.11565 15.17 2.59356C15.17 2.84048 15.17 3.08744 15.17 3.33431Z" fill="white"/>
<path fill-rule="evenodd" clip-rule="evenodd" d="M0 5.9711C0.17559 5.34777 0.65728 5.02197 1.19543 4.76105C1.93713 4.40136 2.73298 4.24103 3.54757 4.16664C4.20278 4.1068 4.8583 4.11501 5.51226 4.19303C5.54585 4.19706 5.57935 4.20174 5.62277 4.20749C5.62277 5.63105 5.62277 7.04917 5.62277 8.48295C5.44723 8.50033 5.27249 8.5238 5.09705 8.53398C3.80315 8.60938 2.53437 8.50466 1.327 7.98676C1.16007 7.91513 0.998488 7.82769 0.843196 7.73324C0.445121 7.49127 0.123055 7.1827 5.07268e-05 6.71189C3.56622e-07 6.46492 0 6.21801 0 5.9711Z" fill="white"/>
<path fill-rule="evenodd" clip-rule="evenodd" d="M15.1699 7.80823C15.0053 8.3545 14.599 8.67692 14.1227 8.93088C13.4835 9.27174 12.7921 9.44859 12.0806 9.5462C10.8707 9.71227 9.66952 9.66689 8.48547 9.34865C7.96867 9.20978 7.46975 9.02246 7.03702 8.69979C6.86904 8.57451 6.71753 8.42144 6.58017 8.26227C6.4283 8.08643 6.35436 7.86903 6.35672 7.6338C6.35944 7.36467 6.32046 7.09041 6.44069 6.81559C6.50572 6.90731 6.55896 6.99294 6.62253 7.07011C6.92258 7.43429 7.31849 7.66176 7.74563 7.84012C8.73168 8.25189 9.76794 8.38633 10.827 8.38205C11.7402 8.37842 12.6375 8.26131 13.5002 7.94912C13.7447 7.86067 13.9829 7.74875 14.2125 7.6262C14.5651 7.43801 14.8671 7.18742 15.0754 6.81116C15.1118 6.89835 15.1409 6.96806 15.1699 7.03782C15.1699 7.29466 15.1699 7.55145 15.1699 7.80823Z" fill="white"/>
<path fill-rule="evenodd" clip-rule="evenodd" d="M15.17 5.55646C15.0442 6.0391 14.7105 6.34943 14.3029 6.59589C13.6586 6.98546 12.9473 7.18407 12.2116 7.29382C10.8974 7.48997 9.59067 7.45415 8.31343 7.06106C7.93052 6.94325 7.55994 6.76856 7.20524 6.57952C6.52172 6.2152 6.24549 5.63075 6.36567 4.86362C6.37992 4.7727 6.40586 4.68369 6.42924 4.58139C7.06133 5.49828 8.02023 5.78494 9.01131 5.98093C10.4782 6.27096 11.938 6.21998 13.3693 5.76015C13.663 5.66581 13.9469 5.53137 14.2209 5.38797C14.5704 5.20513 14.8697 4.9562 15.0748 4.5752C15.112 4.66914 15.141 4.74242 15.17 4.81571C15.17 5.06263 15.17 5.30954 15.17 5.55646Z" fill="white"/>
<path fill-rule="evenodd" clip-rule="evenodd" d="M15.1699 12.3712C15.045 12.8543 14.7113 13.1648 14.3037 13.4113C13.6639 13.7985 12.9575 13.9964 12.227 14.1072C10.9028 14.308 9.58891 14.2628 8.29838 13.8786C7.75604 13.7173 7.24977 13.483 6.81034 13.1118C6.29928 12.6799 6.26418 11.9979 6.44093 11.4133C7.06305 12.3202 8.0298 12.6033 9.02451 12.8006C10.4253 13.0785 11.823 13.0311 13.2002 12.6336C13.6956 12.4906 14.1732 12.2975 14.5758 11.9666C14.7636 11.8123 14.919 11.6185 15.0932 11.4384C15.1117 11.4848 15.1408 11.5576 15.1698 11.6304C15.1699 11.8773 15.1699 12.1243 15.1699 12.3712Z" fill="white"/>
<path fill-rule="evenodd" clip-rule="evenodd" d="M15.17 10.1488C15.0293 10.6557 14.6682 10.9713 14.234 11.2208C13.5911 11.5903 12.8879 11.7802 12.1619 11.8857C10.8718 12.0734 9.59252 12.0238 8.33488 11.6579C7.82528 11.5095 7.34349 11.2994 6.91963 10.9705C6.3298 10.5127 6.24104 9.94573 6.43693 9.18756C6.44519 9.18851 6.45859 9.1864 6.46121 9.19073C6.81964 9.78691 7.39951 10.0768 8.02017 10.2984C9.07668 10.6755 10.171 10.7796 11.2858 10.7199C12.159 10.6731 13.0106 10.5249 13.8179 10.1766C14.3228 9.95872 14.7819 9.677 15.0797 9.16101C15.1141 9.2551 15.1421 9.33161 15.17 9.40803C15.17 9.65504 15.17 9.90196 15.17 10.1488Z" fill="white"/>
<path fill-rule="evenodd" clip-rule="evenodd" d="M0 10.4453C0.0274517 10.3685 0.0549543 10.2917 0.0872416 10.2014C0.5443 10.9273 1.26157 11.2243 2.01536 11.4465C3.1914 11.7931 4.39328 11.8401 5.63042 11.6941C5.64287 12.1053 5.59043 12.5238 5.80838 12.9296C5.48808 12.9581 5.20087 12.993 4.91265 13.0077C3.79932 13.0647 2.70498 12.9605 1.64992 12.5791C1.40558 12.4908 1.16763 12.3779 0.939756 12.2526C0.501384 12.0115 0.14295 11.6914 0 11.186C0 10.9391 0 10.6922 0 10.4453Z" fill="white"/>
<path fill-rule="evenodd" clip-rule="evenodd" d="M0 8.19351C0.0288621 8.1235 0.057724 8.05353 0.090515 7.974C0.529592 8.67681 1.22188 8.97334 1.95068 9.19583C3.10487 9.54807 4.2873 9.60498 5.48218 9.47604C5.52581 9.47135 5.56978 9.47014 5.62378 9.46662C5.62378 9.88056 5.62378 10.2879 5.62378 10.7226C5.33732 10.7429 5.0494 10.7729 4.76083 10.7823C3.57537 10.8206 2.41621 10.6902 1.31577 10.2134C1.16249 10.147 1.01335 10.0681 0.869842 9.98246C0.466327 9.74149 0.139525 9.43176 0 8.96387C0 8.70704 0 8.4503 0 8.19351Z" fill="white"/>
</svg>
