<svg width="70" height="60" viewBox="0 0 70 60" fill="none" xmlns="http://www.w3.org/2000/svg">
<path d="M52.0833 0.958374H17.9167C7.66667 0.958374 0.833336 6.08337 0.833336 18.0417V41.9584C0.833336 53.9167 7.66667 59.0417 17.9167 59.0417H52.0833C62.3333 59.0417 69.1667 53.9167 69.1667 41.9584V18.0417C69.1667 6.08337 62.3333 0.958374 52.0833 0.958374ZM53.6892 21.7659L42.995 30.3075C40.74 32.1184 37.87 33.0067 35 33.0067C32.13 33.0067 29.2258 32.1184 27.005 30.3075L16.3108 21.7659C15.2175 20.8775 15.0467 19.2375 15.9008 18.1442C16.7892 17.0509 18.395 16.8459 19.4883 17.7342L30.1825 26.2759C32.7792 28.36 37.1867 28.36 39.7833 26.2759L50.4775 17.7342C51.5708 16.8459 53.2108 17.0167 54.065 18.1442C54.9533 19.2375 54.7825 20.8775 53.6892 21.7659Z" fill="#0088DF"/>
</svg>
