<svg width="16" height="16" viewBox="0 0 16 16" fill="none" xmlns="http://www.w3.org/2000/svg">
<path d="M11.3333 2.33337H4.66658C2.66659 2.33337 1.33325 3.33337 1.33325 5.66671V10.3334C1.33325 12.6667 2.66659 13.6667 4.66658 13.6667H11.3333C13.3333 13.6667 14.6666 12.6667 14.6666 10.3334V5.66671C14.6666 3.33337 13.3333 2.33337 11.3333 2.33337ZM11.6466 6.39337L9.55992 8.06004C9.11992 8.41337 8.55992 8.58671 7.99992 8.58671C7.43992 8.58671 6.87325 8.41337 6.43992 8.06004L4.35325 6.39337C4.13992 6.22004 4.10659 5.90004 4.27325 5.68671C4.44658 5.47337 4.75992 5.43337 4.97325 5.60671L7.05992 7.27337C7.56659 7.68004 8.42658 7.68004 8.93325 7.27337L11.0199 5.60671C11.2333 5.43337 11.5533 5.46671 11.7199 5.68671C11.8933 5.90004 11.8599 6.22004 11.6466 6.39337Z" fill="#0088DF"/>
</svg>
