<svg width="24" height="24" viewBox="0 0 24 24" fill="none" xmlns="http://www.w3.org/2000/svg">
<path d="M5.36202 14.5031L4.532 17.6218L1.49829 17.6864C0.591651 15.9939 0.0773926 14.0574 0.0773926 11.9996C0.0773926 10.0097 0.558211 8.13324 1.4105 6.48096H1.41115L4.112 6.97933L5.29514 9.68138C5.04751 10.408 4.91255 11.188 4.91255 11.9996C4.91264 12.8805 5.07117 13.7245 5.36202 14.5031Z" fill="#FFC208"/>
<path d="M23.7143 9.75903C23.8512 10.4849 23.9226 11.2346 23.9226 12.0008C23.9226 12.8599 23.8329 13.6979 23.6619 14.5063C23.0815 17.257 21.565 19.659 19.4641 21.3587L19.4635 21.3581L16.0616 21.1834L15.5801 18.1583C16.9741 17.3355 18.0636 16.0478 18.6375 14.5063H12.2621V9.75903H23.7143Z" fill="#1976D3"/>
<path d="M19.4634 21.3572L19.464 21.3579C17.4208 23.0108 14.8253 23.9998 11.9999 23.9998C7.4595 23.9998 3.51193 21.4456 1.49817 17.6867L5.3619 14.5034C6.36876 17.208 8.96097 19.1333 11.9999 19.1333C13.3062 19.1333 14.5299 18.7779 15.58 18.1574L19.4634 21.3572Z" fill="#4CB050"/>
<path d="M19.6103 2.76261L15.7479 5.94522C14.6611 5.2615 13.3764 4.86653 12.0001 4.86653C8.89232 4.86653 6.25164 6.88013 5.29522 9.68169L1.41117 6.48128H1.41052C3.39481 2.63075 7.39216 0 12.0001 0C14.893 0 17.5454 1.03715 19.6103 2.76261Z" fill="#FF3D00"/>
</svg>
