<svg width="23" height="19" viewBox="0 0 23 19" fill="none" xmlns="http://www.w3.org/2000/svg">
<path fill-rule="evenodd" clip-rule="evenodd" d="M0.000186376 9.11468C0.0936741 9.00218 0.172368 8.87189 0.282763 8.77964C3.59281 6.01684 6.90554 3.25722 10.219 0.49852C11.0159 -0.165031 11.8744 -0.166026 12.6675 0.494666C13.7087 1.36222 14.7471 2.2332 15.7871 3.10225C15.8411 3.14744 15.899 3.18791 15.9927 3.25927C15.9927 3.14092 15.9927 3.06943 15.9927 2.99801C15.9927 2.20852 15.9914 1.41904 15.9934 0.629552C15.9945 0.200653 16.145 0.0466841 16.5667 0.0455031C17.3934 0.043141 18.2202 0.043141 19.0468 0.0455031C19.4656 0.0466219 19.6256 0.208981 19.6258 0.629738C19.6268 2.44703 19.6283 4.26432 19.6225 6.08161C19.622 6.23925 19.6703 6.34008 19.7905 6.43891C20.722 7.2054 21.6502 7.97598 22.5739 8.75173C22.6956 8.85392 22.7863 8.99279 22.8914 9.11468C22.8914 9.20407 22.8914 9.29352 22.8914 9.3829C22.5993 9.73733 22.3084 10.0927 22.0147 10.4458C21.7236 10.7959 21.4953 10.814 21.1442 10.5212C17.9859 7.88759 14.8277 5.25415 11.6692 2.62083C11.6009 2.56389 11.5309 2.50894 11.4437 2.43851C11.089 2.73334 10.7352 3.02673 10.3821 3.32105C7.49841 5.72544 4.6149 8.13014 1.73108 10.5344C1.40225 10.8085 1.16325 10.7892 0.89093 10.463C0.591819 10.1047 0.296811 9.74318 0 9.38296C0.000186478 9.29351 0.000186376 9.20407 0.000186376 9.11468Z" fill="#0088DF"/>
<path fill-rule="evenodd" clip-rule="evenodd" d="M13.2722 18.2146C13.2722 16.4049 13.2722 14.6061 13.2722 12.7911C12.0522 12.7911 10.8569 12.7911 9.62945 12.7911C9.62945 14.5931 9.62945 16.3973 9.62945 18.2267C9.51782 18.2267 9.43794 18.2267 9.358 18.2267C7.68921 18.2267 6.02048 18.2271 4.35169 18.2266C3.62225 18.2264 3.26564 17.8711 3.26551 17.1456C3.2652 14.9851 3.26732 12.8247 3.26172 10.6642C3.26129 10.49 3.31723 10.3804 3.45125 10.2702C6.0464 8.13723 8.63727 5.99901 11.2292 3.8621C11.2972 3.80603 11.3674 3.75257 11.449 3.68811C11.9492 4.09967 12.4431 4.5052 12.9361 4.91172C15.1086 6.70272 17.2798 8.49521 19.4556 10.2821C19.5853 10.3888 19.6298 10.4978 19.6294 10.661C19.6247 12.8364 19.6267 15.0117 19.6259 17.1871C19.6256 17.8531 19.255 18.2254 18.5881 18.226C16.8895 18.2278 15.191 18.2268 13.4923 18.2262C13.4271 18.2263 13.3617 18.2195 13.2722 18.2146Z" fill="#0088DF"/>
</svg>
