<svg width="20" height="20" viewBox="0 0 20 20" fill="none" xmlns="http://www.w3.org/2000/svg">
<path d="M9.99967 18.3334C14.5913 18.3334 18.333 14.5917 18.333 10C18.333 5.40837 14.5913 1.66671 9.99967 1.66671C5.40801 1.66671 1.66634 5.40837 1.66634 10C1.66634 14.5917 5.40801 18.3334 9.99967 18.3334ZM10.6247 13.3334C10.6247 13.675 10.3413 13.9584 9.99967 13.9584C9.65801 13.9584 9.37467 13.675 9.37467 13.3334L9.37467 9.16671C9.37467 8.82504 9.65801 8.54171 9.99967 8.54171C10.3413 8.54171 10.6247 8.82504 10.6247 9.16671V13.3334ZM9.23301 6.35004C9.27467 6.24171 9.33301 6.15837 9.40801 6.07504C9.49134 6.00004 9.58301 5.94171 9.68301 5.90004C9.78301 5.85837 9.89134 5.83337 9.99967 5.83337C10.108 5.83337 10.2163 5.85837 10.3163 5.90004C10.4163 5.94171 10.508 6.00004 10.5913 6.07504C10.6663 6.15837 10.7247 6.24171 10.7663 6.35004C10.808 6.45004 10.833 6.55837 10.833 6.66671C10.833 6.77504 10.808 6.88337 10.7663 6.98337C10.7247 7.08337 10.6663 7.17504 10.5913 7.25837C10.508 7.33337 10.4163 7.39171 10.3163 7.43337C10.1163 7.51671 9.88301 7.51671 9.68301 7.43337C9.58301 7.39171 9.49134 7.33337 9.40801 7.25837C9.33301 7.17504 9.27467 7.08337 9.23301 6.98337C9.19134 6.88337 9.16634 6.77504 9.16634 6.66671C9.16634 6.55837 9.19134 6.45004 9.23301 6.35004Z" fill="#0088DF"/>
</svg>
