<svg width="20" height="20" viewBox="0 0 20 20" fill="none" xmlns="http://www.w3.org/2000/svg">
<path d="M16.8248 11.7168L15.8832 10.1502C15.6748 9.8085 15.4915 9.15016 15.4915 8.75016V7.19183C15.4915 4.16683 13.0332 1.7085 10.0165 1.7085C6.99151 1.71683 4.53318 4.16683 4.53318 7.19183V8.74183C4.53318 9.14183 4.34984 9.80016 4.14984 10.1418L3.20818 11.7085C2.84984 12.3168 2.76651 13.0085 2.99151 13.6085C3.21651 14.2168 3.72484 14.7002 4.39151 14.9168C5.29151 15.2168 6.19984 15.4335 7.12484 15.5918C7.21651 15.6085 7.30818 15.6168 7.39984 15.6335C7.51651 15.6502 7.64151 15.6668 7.76651 15.6835C7.98318 15.7168 8.19984 15.7418 8.42484 15.7585C8.94984 15.8085 9.48318 15.8335 10.0165 15.8335C10.5415 15.8335 11.0665 15.8085 11.5832 15.7585C11.7748 15.7418 11.9665 15.7252 12.1498 15.7002C12.2998 15.6835 12.4498 15.6668 12.5998 15.6418C12.6915 15.6335 12.7832 15.6168 12.8748 15.6002C13.8082 15.4502 14.7332 15.2168 15.6332 14.9168C16.2748 14.7002 16.7665 14.2168 16.9998 13.6002C17.2332 12.9752 17.1665 12.2918 16.8248 11.7168ZM10.6248 8.3335C10.6248 8.6835 10.3415 8.96683 9.99151 8.96683C9.64151 8.96683 9.35818 8.6835 9.35818 8.3335V5.75016C9.35818 5.40016 9.64151 5.11683 9.99151 5.11683C10.3415 5.11683 10.6248 5.40016 10.6248 5.75016V8.3335Z" fill="#0088DF"/>
<path d="M12.3582 16.6751C12.0082 17.6417 11.0832 18.3334 9.9999 18.3334C9.34157 18.3334 8.69157 18.0667 8.23324 17.5917C7.96657 17.3417 7.76657 17.0084 7.6499 16.6667C7.75824 16.6834 7.86657 16.6917 7.98324 16.7084C8.1749 16.7334 8.3749 16.7584 8.5749 16.7751C9.0499 16.8167 9.53324 16.8417 10.0166 16.8417C10.4916 16.8417 10.9666 16.8167 11.4332 16.7751C11.6082 16.7584 11.7832 16.7501 11.9499 16.7251C12.0832 16.7084 12.2166 16.6917 12.3582 16.6751Z" fill="#0088DF"/>
</svg>
