<svg width="16" height="16" viewBox="0 0 16 16" fill="none" xmlns="http://www.w3.org/2000/svg">
<path d="M12.5 5.33337V6.73337C12.2067 6.69337 11.8733 6.67337 11.5 6.66671V5.33337C11.5 3.23337 10.9067 1.83337 8 1.83337C5.09333 1.83337 4.5 3.23337 4.5 5.33337V6.66671C4.12667 6.67337 3.79333 6.69337 3.5 6.73337V5.33337C3.5 3.40004 3.96667 0.833374 8 0.833374C12.0333 0.833374 12.5 3.40004 12.5 5.33337Z" fill="#0088DF"/>
<path d="M12.4999 6.73329C12.2066 6.69329 11.8733 6.67329 11.4999 6.66663H4.49992C4.12659 6.67329 3.79325 6.69329 3.49992 6.73329C1.79992 6.93996 1.33325 7.77329 1.33325 9.99996V11.3333C1.33325 14 1.99992 14.6666 4.66658 14.6666H11.3333C13.9999 14.6666 14.6666 14 14.6666 11.3333V9.99996C14.6666 7.77329 14.1999 6.93996 12.4999 6.73329ZM5.80658 11.14C5.67992 11.26 5.50659 11.3333 5.33325 11.3333C5.24659 11.3333 5.15992 11.3133 5.07992 11.28C4.99325 11.2466 4.92658 11.2 4.85992 11.14C4.73992 11.0133 4.66658 10.84 4.66658 10.6666C4.66658 10.58 4.68658 10.4933 4.71992 10.4133C4.75325 10.3333 4.79992 10.26 4.85992 10.1933C4.92658 10.1333 4.99325 10.0866 5.07992 10.0533C5.32659 9.94663 5.61992 10.0066 5.80658 10.1933C5.86659 10.26 5.91325 10.3333 5.94659 10.4133C5.97992 10.4933 5.99992 10.58 5.99992 10.6666C5.99992 10.84 5.92659 11.0133 5.80658 11.14ZM8.61325 10.92C8.57992 11 8.53325 11.0733 8.47325 11.14C8.34658 11.26 8.17325 11.3333 7.99992 11.3333C7.81992 11.3333 7.65325 11.26 7.52659 11.14C7.46658 11.0733 7.41992 11 7.38658 10.92C7.35325 10.84 7.33325 10.7533 7.33325 10.6666C7.33325 10.4866 7.40658 10.32 7.52659 10.1933C7.77325 9.94663 8.21992 9.94663 8.47325 10.1933C8.59325 10.32 8.66658 10.4866 8.66658 10.6666C8.66658 10.7533 8.64658 10.84 8.61325 10.92ZM11.1399 11.14C11.0133 11.26 10.8399 11.3333 10.6666 11.3333C10.4933 11.3333 10.3199 11.26 10.1933 11.14C10.0733 11.0133 9.99992 10.8466 9.99992 10.6666C9.99992 10.4866 10.0733 10.32 10.1933 10.1933C10.4466 9.94663 10.8933 9.94663 11.1399 10.1933C11.1666 10.2266 11.1933 10.26 11.2199 10.3C11.2466 10.3333 11.2666 10.3733 11.2799 10.4133C11.2999 10.4533 11.3133 10.4933 11.3199 10.5333C11.3266 10.58 11.3333 10.6266 11.3333 10.6666C11.3333 10.84 11.2599 11.0133 11.1399 11.14Z" fill="#0088DF"/>
</svg>
