<svg width="19" height="23" viewBox="0 0 19 23" fill="none" xmlns="http://www.w3.org/2000/svg">
<path d="M16.1536 1.66721C15.184 0.555737 13.3833 0 10.8901 0H3.96446C3.54892 0 3.13338 0.416802 2.99487 0.833604L0.224609 19.0339C0.224609 19.4507 0.501635 19.7286 0.778661 19.7286H5.07256L6.18066 12.9208V13.1987C6.31918 12.7819 6.73471 12.3651 7.15025 12.3651H9.22795C13.2448 12.3651 16.2921 10.6979 17.2617 6.11309V5.69629C17.1232 5.69629 17.1232 5.69629 17.2617 5.69629C17.4002 3.89015 17.1232 2.77868 16.1536 1.66721Z" fill="#263B80"/>
<path d="M17.1224 5.69653V6.11333C16.1528 10.8371 13.1055 12.3654 9.08866 12.3654H7.01097C6.59543 12.3654 6.17989 12.7822 6.04138 13.199L4.65625 21.6739C4.65625 21.9518 4.79476 22.2297 5.2103 22.2297H8.81164C9.22717 22.2297 9.64271 21.9518 9.64271 21.535V21.3961L10.3353 17.0891V16.8112C10.3353 16.3944 10.7508 16.1166 11.1664 16.1166H11.7204C15.1832 16.1166 17.9535 14.7272 18.646 10.5592C18.9231 8.89201 18.7846 7.36374 17.9535 6.3912C17.815 6.11333 17.5379 5.83547 17.1224 5.69653Z" fill="#139AD6"/>
<path d="M16.1546 5.27947C16.0161 5.27947 15.8775 5.14054 15.739 5.14054C15.6005 5.14054 15.462 5.14054 15.3235 5.00161C14.7694 4.86267 14.2154 4.86267 13.5228 4.86267H8.12082C7.98231 4.86267 7.84379 4.86267 7.70528 5.00161C7.42826 5.14054 7.28974 5.41841 7.28974 5.69627L6.18164 12.9208V13.1987C6.32015 12.7819 6.73569 12.3651 7.15123 12.3651H9.22892C13.2458 12.3651 16.2931 10.6979 17.2627 6.11308C17.2627 5.97414 17.2627 5.83521 17.4012 5.69627C17.1242 5.55734 16.9856 5.41841 16.7086 5.41841C16.2931 5.27947 16.2931 5.27947 16.1546 5.27947Z" fill="#232C65"/>
</svg>
