<svg width="20" height="20" viewBox="0 0 20 20" fill="none" xmlns="http://www.w3.org/2000/svg">
<path d="M18.3327 9.99996C18.3327 5.40829 14.591 1.66663 9.99935 1.66663C5.40768 1.66663 1.66602 5.40829 1.66602 9.99996C1.66602 12.4166 2.70768 14.5916 4.35768 16.1166C4.35768 16.125 4.35768 16.125 4.34935 16.1333C4.43268 16.2166 4.53268 16.2833 4.61602 16.3583C4.66602 16.4 4.70768 16.4416 4.75768 16.475C4.90768 16.6 5.07435 16.7166 5.23268 16.8333C5.29102 16.875 5.34102 16.9083 5.39935 16.95C5.55768 17.0583 5.72435 17.1583 5.89935 17.25C5.95768 17.2833 6.02435 17.325 6.08268 17.3583C6.24935 17.45 6.42435 17.5333 6.60768 17.6083C6.67435 17.6416 6.74102 17.675 6.80768 17.7C6.99102 17.775 7.17435 17.8416 7.35768 17.9C7.42435 17.925 7.49102 17.95 7.55768 17.9666C7.75768 18.025 7.95768 18.075 8.15768 18.125C8.21602 18.1416 8.27435 18.1583 8.34102 18.1666C8.57435 18.2166 8.80768 18.25 9.04935 18.275C9.08268 18.275 9.11601 18.2833 9.14935 18.2916C9.43268 18.3166 9.71602 18.3333 9.99935 18.3333C10.2827 18.3333 10.566 18.3166 10.841 18.2916C10.8743 18.2916 10.9077 18.2833 10.941 18.275C11.1827 18.25 11.416 18.2166 11.6493 18.1666C11.7077 18.1583 11.766 18.1333 11.8327 18.125C12.0327 18.075 12.241 18.0333 12.4327 17.9666C12.4993 17.9416 12.566 17.9166 12.6327 17.9C12.816 17.8333 13.0077 17.775 13.1827 17.7C13.2493 17.675 13.316 17.6416 13.3827 17.6083C13.5577 17.5333 13.7327 17.45 13.9077 17.3583C13.9743 17.325 14.0327 17.2833 14.091 17.25C14.2577 17.15 14.4243 17.0583 14.591 16.95C14.6493 16.9166 14.6993 16.875 14.7577 16.8333C14.9243 16.7166 15.0827 16.6 15.2327 16.475C15.2827 16.4333 15.3243 16.3916 15.3743 16.3583C15.466 16.2833 15.5577 16.2083 15.641 16.1333C15.641 16.125 15.641 16.125 15.6327 16.1166C17.291 14.5916 18.3327 12.4166 18.3327 9.99996ZM14.116 14.1416C11.8577 12.625 8.15768 12.625 5.88268 14.1416C5.51602 14.3833 5.21602 14.6666 4.96602 14.975C3.69935 13.6916 2.91602 11.9333 2.91602 9.99996C2.91602 6.09163 6.09102 2.91663 9.99935 2.91663C13.9077 2.91663 17.0827 6.09163 17.0827 9.99996C17.0827 11.9333 16.2993 13.6916 15.0327 14.975C14.791 14.6666 14.4827 14.3833 14.116 14.1416Z" fill="#0088DF"/>
<path d="M10 5.77502C8.275 5.77502 6.875 7.17502 6.875 8.90002C6.875 10.5917 8.2 11.9667 9.95833 12.0167C9.98333 12.0167 10.0167 12.0167 10.0333 12.0167C10.05 12.0167 10.075 12.0167 10.0917 12.0167C10.1 12.0167 10.1083 12.0167 10.1083 12.0167C11.7917 11.9584 13.1167 10.5917 13.125 8.90002C13.125 7.17502 11.725 5.77502 10 5.77502Z" fill="#0088DF"/>
</svg>
