<svg width="20" height="20" viewBox="0 0 20 20" fill="none" xmlns="http://www.w3.org/2000/svg">
<path d="M5.55866 11.6675H3.33366C2.41699 11.6675 1.66699 12.4175 1.66699 13.3341V17.5008C1.66699 17.9591 2.04199 18.3341 2.50033 18.3341H5.55866C6.01699 18.3341 6.39199 17.9591 6.39199 17.5008V12.5008C6.39199 12.0425 6.01699 11.6675 5.55866 11.6675Z" fill="#0088DF"/>
<path d="M11.1085 8.33252H8.88346C7.9668 8.33252 7.2168 9.08252 7.2168 9.99919V17.4992C7.2168 17.9575 7.5918 18.3325 8.05013 18.3325H11.9418C12.4001 18.3325 12.7751 17.9575 12.7751 17.4992V9.99919C12.7751 9.08252 12.0335 8.33252 11.1085 8.33252Z" fill="#0088DF"/>
<path d="M16.6667 14.1675H14.4417C13.9834 14.1675 13.6084 14.5425 13.6084 15.0008V17.5008C13.6084 17.9591 13.9834 18.3341 14.4417 18.3341H17.5001C17.9584 18.3341 18.3334 17.9591 18.3334 17.5008V15.8341C18.3334 14.9175 17.5834 14.1675 16.6667 14.1675Z" fill="#0088DF"/>
<path d="M12.5084 4.04124C12.7667 3.78291 12.8667 3.47458 12.7834 3.20791C12.7 2.94124 12.4417 2.74958 12.075 2.69124L11.275 2.55791C11.2417 2.55791 11.1667 2.49958 11.15 2.46624L10.7084 1.58291C10.375 0.90791 9.6167 0.90791 9.28336 1.58291L8.8417 2.46624C8.83336 2.49958 8.75836 2.55791 8.72503 2.55791L7.92503 2.69124C7.55836 2.74958 7.30836 2.94124 7.2167 3.20791C7.13336 3.47458 7.23336 3.78291 7.4917 4.04124L8.10836 4.66624C8.1417 4.69124 8.1667 4.79124 8.15836 4.82458L7.98336 5.59124C7.85003 6.16624 8.0667 6.42458 8.20837 6.52458C8.35003 6.62458 8.65836 6.75791 9.1667 6.45791L9.9167 6.01624C9.95003 5.99124 10.0584 5.99124 10.0917 6.01624L10.8334 6.45791C11.0667 6.59958 11.2584 6.64124 11.4084 6.64124C11.5834 6.64124 11.7084 6.57458 11.7834 6.52458C11.925 6.42458 12.1417 6.16624 12.0084 5.59124L11.8334 4.82458C11.825 4.78291 11.85 4.69124 11.8834 4.66624L12.5084 4.04124Z" fill="#0088DF"/>
</svg>
