<svg width="16" height="18" viewBox="0 0 16 18" fill="none" xmlns="http://www.w3.org/2000/svg">
<path fill-rule="evenodd" clip-rule="evenodd" d="M12.6984 18C12.3508 17.8869 11.985 17.8147 11.6588 17.6534C10.4237 17.0427 9.76048 15.5377 10.0971 14.1459C10.1436 13.9539 10.1001 13.8757 9.93908 13.7897C8.48921 13.0157 7.0441 12.232 5.59752 11.4511C5.54858 11.4247 5.49935 11.3989 5.438 11.3664C4.76896 12.2751 3.89658 12.7456 2.79959 12.6797C2.03763 12.634 1.37846 12.3105 0.852451 11.7268C-0.287365 10.4622 -0.28295 8.57438 0.858532 7.31862C1.94104 6.12772 3.94906 5.92449 5.25569 7.445C6.90202 6.39972 8.55011 5.3533 10.2057 4.30213C10.0631 3.88223 9.98498 3.46078 10.0029 3.0219C10.0645 1.51563 11.1554 0.246028 12.5716 0.0348891C12.6146 0.0285176 12.6562 0.0118642 12.6984 0C12.8984 0 13.0983 0 13.2983 0C13.3295 0.0107657 13.3599 0.0264086 13.3919 0.0315058C15.0719 0.300515 16.1777 1.83337 15.965 3.59946C15.6886 5.89519 13.1407 7.0983 11.341 5.77821C11.116 5.61312 10.9167 5.40911 10.7014 5.21959C9.09994 6.23617 7.49376 7.25689 5.88541 8.27378C5.79016 8.33402 5.79216 8.39137 5.8251 8.48756C5.95672 8.87147 6.02415 9.26958 5.99308 9.67727C5.97459 9.92022 5.92136 10.1603 5.88116 10.4181C7.44569 11.2631 9.01755 12.1122 10.5901 12.9616C10.6316 12.912 10.6608 12.8774 10.6897 12.8425C11.5211 11.8341 12.5557 11.4665 13.7865 11.7887C14.9811 12.1013 15.8552 13.2201 15.9857 14.5571C16.109 15.8196 15.4248 17.1239 14.3232 17.6618C14.0011 17.8191 13.641 17.8897 13.2983 18C13.0983 18 12.8984 18 12.6984 18Z" fill="#3A3E42"/>
</svg>
