<svg width="48" height="106" viewBox="0 0 48 106" fill="none" xmlns="http://www.w3.org/2000/svg">
<path d="M6.71214 44.8921C7.08507 46.9454 7.22241 49.3345 7.97229 51.5171C9.52733 56.06 11.3358 60.5289 13.1702 64.9797C16.6417 73.4247 20.1949 81.8431 24.0074 90.9877C26.1895 84.3817 24.5946 77.0991 30.265 71.6277C30.8363 72.9076 31.4977 73.6448 31.3635 74.1798C29.2829 82.3651 29.1813 90.6821 29.6 99.0353C29.9354 105.835 27.3426 107.376 21.7261 104.023C15.8263 100.497 9.54141 97.6449 3.46376 94.411C2.47588 93.8802 1.72878 92.9056 0.704078 91.987C4.88762 89.7065 4.88763 89.7065 18.9955 95.7022C18.4088 94.2244 18.0127 93.1113 17.5428 92.0307C12.7918 81.1609 7.91901 70.338 3.34937 59.3909C1.88376 55.8715 0.820163 52.0771 0.260764 48.3071C-0.746286 41.5582 2.53958 37.3962 9.37598 36.8765C12.8262 36.6155 16.414 37.1274 19.841 37.8065C23.7548 38.5841 27.5295 40.0548 31.4206 41.0145C34.1697 41.7026 37.0124 42.0619 39.9142 42.5769C40.7871 39.3924 39.6917 37.0043 38.8386 34.6585C35.2038 24.6506 30.1504 15.3851 23.9514 6.72785C23.2018 5.68927 22.2746 4.70599 21.8422 3.5411C21.571 2.83105 21.8406 1.67507 22.3079 1.02566C22.5553 0.673849 23.9154 0.683969 24.426 1.03627C25.8693 2.02781 27.3132 3.11934 28.423 4.46132C35.9613 13.5608 41.8167 23.6425 45.664 34.8269C46.4384 37.0773 46.9461 39.5037 47.0792 41.8648C47.3143 46.1412 45.2192 48.7585 40.9582 48.9054C37.4929 49.0186 33.9306 48.4385 30.5211 47.6852C25.5209 46.5775 20.6468 44.9289 15.656 43.7411C12.8713 43.1013 9.95202 42.6605 6.71214 44.8921Z" fill="white"/>
</svg>
