<svg width="78" height="85" viewBox="0 0 78 85" fill="none" xmlns="http://www.w3.org/2000/svg">
<path d="M34.8285 24.1686C33.8071 25.9885 32.3902 27.917 31.5769 30.0768C29.8796 34.5684 28.4248 39.1647 27.0015 43.7635C24.2938 52.4834 21.6661 61.235 18.7754 70.7114C24.6673 67.0119 28.0801 60.3837 35.9367 59.7818C35.5612 61.1322 35.6009 62.1218 35.1566 62.4486C28.3363 67.4297 22.957 73.7736 17.9556 80.4771C13.88 85.9305 10.9 85.4652 8.70943 79.3015C6.41021 72.8247 3.38541 66.621 0.763453 60.2553C0.340571 59.2166 0.386075 57.9895 0.18196 56.6285C4.85911 57.5378 4.85912 57.5378 11.9086 71.1498C12.3984 69.6371 12.8026 68.5269 13.1293 67.3947C16.3964 55.9908 19.5399 44.5454 22.9961 33.1974C24.11 29.5514 25.7088 25.9497 27.6807 22.6881C31.2063 16.8459 36.3909 15.7331 41.99 19.69C44.815 21.6879 47.2533 24.3692 49.4611 27.0768C51.9813 30.1705 53.9526 33.7096 56.3392 36.9292C58.019 39.2116 59.9804 41.3003 61.8882 43.5466C64.5905 41.6492 65.2685 39.1109 66.1064 36.7595C69.6843 26.7312 71.6959 16.3707 72.4371 5.74871C72.5214 4.47067 72.4337 3.12205 72.8429 1.94879C73.0866 1.22882 74.0311 0.509909 74.8051 0.307339C75.22 0.193968 76.2616 1.06866 76.4305 1.66555C76.9106 3.34947 77.3275 5.11091 77.3273 6.85231C77.3363 18.6687 75.4224 30.1693 71.2584 41.2396C70.4207 43.4673 69.2654 45.6605 67.8631 47.5647C65.3186 51.0098 62.036 51.6912 58.659 49.0886C55.9167 46.9671 53.5415 44.2496 51.3943 41.496C48.2474 37.4555 45.5424 33.0785 42.4538 28.9823C40.7158 26.7144 38.7473 24.5141 34.8285 24.1686Z" fill="white"/>
</svg>
