<svg width="48" height="105" viewBox="0 0 48 105" fill="none" xmlns="http://www.w3.org/2000/svg">
<path d="M40.5769 58.122C39.926 56.1392 39.4623 53.7915 38.4203 51.7323C36.257 47.4456 33.8527 43.2669 31.4254 39.1096C26.8287 31.2204 22.1547 23.3688 17.1243 14.8334C15.8687 21.6762 18.4471 28.6713 13.5805 34.8685C12.8391 33.6791 12.0829 33.0395 12.1424 32.4912C13.0809 24.0979 12.0411 15.8455 10.481 7.62867C9.21636 0.939153 11.5735 -0.942714 17.5967 1.60875C23.9241 4.2917 30.5408 6.25538 37.0045 8.62539C38.0558 9.01575 38.9295 9.8787 40.0705 10.6481C36.2392 13.4807 36.2392 13.4807 21.4424 9.47613C22.2262 10.8595 22.7712 11.9078 23.3848 12.9138C29.5815 23.0294 35.8923 33.0819 41.9198 43.299C43.8542 46.5842 45.428 50.1969 46.4991 53.8546C48.4221 60.4017 45.7379 64.9749 39.0374 66.4271C35.6556 67.1588 32.0314 67.1436 28.5437 66.9409C24.5603 66.7073 20.6195 65.7682 16.6336 65.351C13.8161 65.0464 10.951 65.0803 8.00598 64.9681C7.57799 68.2421 8.99048 70.4575 10.1572 72.6642C15.1299 82.0791 21.4061 90.5642 28.7337 98.2896C29.6186 99.2156 30.6719 100.062 31.26 101.157C31.6259 101.823 31.5174 103.005 31.1436 103.713C30.9467 104.095 29.5981 104.271 29.044 103.993C27.4784 103.208 25.8984 102.325 24.6151 101.148C15.9003 93.168 8.71777 83.9844 3.37313 73.4333C2.2975 71.3103 1.46194 68.9765 1.00628 66.6559C0.187041 62.4521 1.90341 59.5723 6.10405 58.8424C9.52107 58.2552 13.1293 58.3414 16.6099 58.62C21.7148 59.0316 26.7689 59.9963 31.8754 60.4885C34.7215 60.7404 37.6737 60.7767 40.5769 58.122Z" fill="white"/>
</svg>
