<svg width="28" height="22" viewBox="0 0 28 22" fill="none" xmlns="http://www.w3.org/2000/svg">
<path d="M27.1278 2.94798C26.162 3.37144 25.1232 3.65786 24.0337 3.78577C25.1461 3.12674 25.9997 2.08396 26.4027 0.839377C25.3618 1.44995 24.2085 1.89288 22.982 2.13163C21.9994 1.0968 20.5994 0.450073 19.0492 0.450073C16.0749 0.450073 13.6625 2.83555 13.6625 5.77679C13.6625 6.19429 13.7103 6.60068 13.8027 6.99078C9.32597 6.76872 5.35659 4.6482 2.69961 1.42452C2.23603 2.21108 1.97009 3.12674 1.97009 4.10278C1.97009 5.95038 2.92176 7.58149 4.36635 8.53647C3.48377 8.50906 2.65261 8.26952 1.92671 7.86949C1.9263 7.89214 1.9263 7.91478 1.9263 7.93703C1.9263 10.518 3.78385 12.6706 6.2476 13.1597C5.79607 13.282 5.31922 13.3468 4.82873 13.3468C4.48084 13.3468 4.14379 13.3138 3.81519 13.2518C4.50052 15.3676 6.48943 16.9077 8.84713 16.951C7.00323 18.3799 4.68089 19.2312 2.15649 19.2312C1.72263 19.2312 1.29279 19.2062 0.872192 19.1565C3.25479 20.6685 6.08691 21.55 9.12873 21.55C19.0367 21.55 24.4551 13.4334 24.4551 6.39371C24.4551 6.16291 24.4499 5.9329 24.4395 5.70488C25.4928 4.95408 26.4059 4.01618 27.1278 2.94798Z" fill="#15B6FC"/>
</svg>
