<svg width="27" height="26" viewBox="0 0 27 26" fill="none" xmlns="http://www.w3.org/2000/svg">
<path d="M24.0671 11.8841V14.1157C24.0671 14.7116 23.5875 15.1991 22.9771 15.2207H20.8408C19.6637 15.2207 18.5846 14.3649 18.4865 13.1949C18.4211 12.5124 18.6827 11.8732 19.1405 11.4291C19.5438 11.0174 20.0996 10.7791 20.71 10.7791H22.9771C23.5875 10.8007 24.0671 11.2882 24.0671 11.8841Z" fill="#0088DF"/>
<path d="M22.4011 16.8457H20.8424C18.7715 16.8457 17.0276 15.2965 16.8532 13.3248C16.7551 12.1982 17.1693 11.0715 17.9976 10.2698C18.6952 9.55484 19.6653 9.154 20.7116 9.154H22.4011C22.7172 9.154 22.9788 8.894 22.9461 8.57984C22.7063 5.94734 20.9514 4.149 18.3464 3.84567C18.0848 3.80234 17.8123 3.7915 17.529 3.7915H7.71933C7.41414 3.7915 7.11985 3.81317 6.83646 3.8565C4.05706 4.20317 2.26953 6.2615 2.26953 9.20817V16.7915C2.26953 19.7815 4.71104 22.2082 7.71933 22.2082H17.529C20.5808 22.2082 22.6845 20.3123 22.9461 17.4198C22.9788 17.1057 22.7172 16.8457 22.4011 16.8457ZM14.2591 10.5623H7.71933C7.27244 10.5623 6.90186 10.194 6.90186 9.74984C6.90186 9.30567 7.27244 8.93734 7.71933 8.93734H14.2591C14.706 8.93734 15.0766 9.30567 15.0766 9.74984C15.0766 10.194 14.706 10.5623 14.2591 10.5623Z" fill="#0088DF"/>
</svg>
