<svg width="27" height="26" viewBox="0 0 27 26" fill="none" xmlns="http://www.w3.org/2000/svg">
<path d="M24.6342 8.17869C24.6342 8.89369 24.051 9.47869 23.3382 9.47869H4.32926C3.61643 9.47869 3.0332 8.89369 3.0332 8.17869V8.16786C3.0332 5.68703 5.0313 3.68286 7.50461 3.68286H20.152C22.6253 3.68286 24.6342 5.69786 24.6342 8.17869Z" fill="#0088DF"/>
<path d="M3.0332 12.4042V17.8317C3.0332 20.3126 5.0313 22.3167 7.50461 22.3167H20.152C22.6253 22.3167 24.6342 20.3017 24.6342 17.8209V12.4042C24.6342 11.6892 24.051 11.1042 23.3382 11.1042H4.32926C3.61643 11.1042 3.0332 11.6892 3.0332 12.4042ZM9.51351 18.6876H7.3534C6.91058 18.6876 6.54337 18.3192 6.54337 17.8751C6.54337 17.4309 6.91058 17.0626 7.3534 17.0626H9.51351C9.95633 17.0626 10.3235 17.4309 10.3235 17.8751C10.3235 18.3192 9.95633 18.6876 9.51351 18.6876ZM16.5338 18.6876H12.2136C11.7708 18.6876 11.4036 18.3192 11.4036 17.8751C11.4036 17.4309 11.7708 17.0626 12.2136 17.0626H16.5338C16.9767 17.0626 17.3439 17.4309 17.3439 17.8751C17.3439 18.3192 16.9767 18.6876 16.5338 18.6876Z" fill="#0088DF"/>
</svg>
